<svg width="1400" height="900" viewBox="0 0 1400 900" fill="none" xmlns="http://www.w3.org/2000/svg">
  <defs>
    <linearGradient id="bg" x1="0" y1="0" x2="1400" y2="900" gradientUnits="userSpaceOnUse">
      <stop stop-color="#0B1220"/>
      <stop offset="1" stop-color="#111827"/>
    </linearGradient>
    <linearGradient id="bar1" x1="0" y1="0" x2="1" y2="1">
      <stop stop-color="#06B6D4"/>
      <stop offset="1" stop-color="#0284C7"/>
    </linearGradient>
    <linearGradient id="bar2" x1="0" y1="0" x2="1" y2="1">
      <stop stop-color="#60A5FA"/>
      <stop offset="1" stop-color="#2563EB"/>
    </linearGradient>
    <linearGradient id="bar3" x1="0" y1="0" x2="1" y2="1">
      <stop stop-color="#F59E0B"/>
      <stop offset="1" stop-color="#EA580C"/>
    </linearGradient>
  </defs>

  <rect width="1400" height="900" fill="url(#bg)"/>

  <rect x="130" y="130" width="1140" height="640" rx="34" fill="#111827" stroke="#334155"/>

  <rect x="190" y="214" width="530" height="16" rx="8" fill="#1E293B"/>
  <rect x="190" y="252" width="410" height="14" rx="7" fill="#1E293B"/>
  <rect x="190" y="284" width="460" height="14" rx="7" fill="#1E293B"/>

  <rect x="190" y="356" width="430" height="10" rx="5" fill="#0F172A"/>
  <rect x="190" y="382" width="470" height="10" rx="5" fill="#0F172A"/>
  <rect x="190" y="408" width="390" height="10" rx="5" fill="#0F172A"/>
  <rect x="190" y="434" width="520" height="10" rx="5" fill="#0F172A"/>
  <rect x="190" y="460" width="350" height="10" rx="5" fill="#0F172A"/>

  <g transform="translate(830 232)">
    <rect x="0" y="0" width="370" height="430" rx="24" fill="#0F172A" stroke="#1E293B"/>
    <rect x="72" y="194" width="56" height="164" rx="16" fill="url(#bar1)"/>
    <rect x="156" y="130" width="56" height="228" rx="16" fill="url(#bar2)"/>
    <rect x="240" y="72" width="56" height="286" rx="16" fill="url(#bar3)"/>
  </g>

  <text x="190" y="706" fill="#94A3B8" font-family="Segoe UI, Arial, sans-serif" font-size="36" font-weight="600">
    Smart Codeforces Problem Picker
  </text>
</svg>
