<svg width="1400" height="900" viewBox="0 0 1400 900" fill="none" xmlns="http://www.w3.org/2000/svg">
  <defs>
    <linearGradient id="wall" x1="0" y1="0" x2="1400" y2="900" gradientUnits="userSpaceOnUse">
      <stop stop-color="#2E2E2E"/>
      <stop offset="1" stop-color="#3A3A3A"/>
    </linearGradient>
    <linearGradient id="table" x1="0" y1="560" x2="1400" y2="900" gradientUnits="userSpaceOnUse">
      <stop stop-color="#D7C4A5"/>
      <stop offset="1" stop-color="#BFA07E"/>
    </linearGradient>
    <linearGradient id="arm" x1="820" y1="180" x2="1120" y2="620" gradientUnits="userSpaceOnUse">
      <stop stop-color="#FB923C"/>
      <stop offset="1" stop-color="#EA580C"/>
    </linearGradient>
  </defs>

  <rect width="1400" height="560" fill="url(#wall)"/>
  <rect y="560" width="1400" height="340" fill="url(#table)"/>

  <g opacity="0.96">
    <rect x="54" y="170" width="330" height="470" rx="18" fill="#111827" stroke="#334155" stroke-width="4"/>
    <rect x="76" y="194" width="286" height="318" rx="8" fill="#E5E7EB"/>
    <rect x="76" y="526" width="286" height="94" rx="8" fill="#0B1220"/>
    <circle cx="219" cy="573" r="18" fill="#1F2937"/>
  </g>

  <g>
    <ellipse cx="1034" cy="702" rx="122" ry="30" fill="#9CA3AF" fill-opacity="0.38"/>
    <ellipse cx="1034" cy="684" rx="136" ry="22" fill="#D1D5DB"/>
    <rect x="944" y="530" width="180" height="170" rx="30" fill="url(#arm)" stroke="#C2410C" stroke-width="8"/>
    <circle cx="1034" cy="604" r="24" fill="#111827" fill-opacity="0.45"/>
  </g>

  <g transform="rotate(-10 1010 470)">
    <rect x="954" y="342" width="112" height="240" rx="36" fill="url(#arm)" stroke="#C2410C" stroke-width="8"/>
    <rect x="998" y="254" width="248" height="102" rx="32" fill="url(#arm)" stroke="#C2410C" stroke-width="8"/>
    <rect x="1180" y="265" width="64" height="76" rx="12" fill="#111827" fill-opacity="0.35"/>
  </g>

  <g transform="translate(1214 284)">
    <rect x="-2" y="0" width="14" height="78" rx="7" fill="#E5E7EB" stroke="#9CA3AF"/>
    <rect x="20" y="2" width="14" height="76" rx="7" fill="#E5E7EB" stroke="#9CA3AF"/>
    <rect x="42" y="8" width="12" height="66" rx="6" fill="#D1D5DB" stroke="#9CA3AF"/>
  </g>

  <g>
    <rect x="690" y="575" width="190" height="120" rx="12" fill="#C49A6C" stroke="#A17C54" stroke-width="5"/>
    <rect x="763" y="628" width="105" height="46" rx="16" fill="#2563EB"/>
    <rect x="786" y="606" width="68" height="24" rx="10" fill="#D1D5DB"/>
  </g>
</svg>
